<svg id="ICAN-logo-color" xmlns="http://www.w3.org/2000/svg" width="134.749" height="42.637" viewBox="0 0 134.749 42.637">
  <path id="Path_212" data-name="Path 212" d="M56.334,282.881V295.5H67.922V282.9C63.667,282.916,59.764,282.908,56.334,282.881Z" transform="translate(-56.334 -253.58)" fill="#91b43a"/>
  <path id="Path_213" data-name="Path 213" d="M56.334,264.465v29.3c3.43.027,7.333.035,11.588.017V264.465Z" transform="translate(-56.334 -264.465)" fill="#c2da67"/>
  <path id="Path_214" data-name="Path 214" d="M77.391,285.8v-.151c0-6.022,4.116-11.128,9.907-11.128,4.116,0,6.708,1.753,9.3,4.5l7.088-7.621c-3.811-4.269-8.614-6.861-16.311-6.861A20.976,20.976,0,0,0,65.956,285.8v.156a21.707,21.707,0,0,0,1.43,7.752c3.982-.043,8.2-.113,12.572-.224A12.062,12.062,0,0,1,77.391,285.8Z" transform="translate(-50.647 -264.425)" fill="#c2da67"/>
  <path id="Path_215" data-name="Path 215" d="M117.187,283c0,4.192-3.659,7.166-9.069,7.166-3.736,0-6.328-1.83-6.328-4.953v-.153a5.178,5.178,0,0,1,.549-2.412c-3.833.348-7.721.651-11.623.909a15.748,15.748,0,0,0-.13,1.958v.153c0,8.078,6.326,12.5,14.023,12.5,5.643,0,9.527-2.056,12.35-5.182v4.42h11.206V279.326q-5.4.9-10.978,1.652Z" transform="translate(-36.09 -255.681)" fill="#91b43a"/>
  <path id="Path_216" data-name="Path 216" d="M109.9,264.723a38.971,38.971,0,0,0-17.035,3.685l2.9,8.843c3.736-1.371,7.149-2.616,12.458-2.616,5.795,0,8.768,2.667,8.768,7.465v.689A28.974,28.974,0,0,0,107,281.112c-8.937,0-15.392,3.519-16.332,11.074,3.9-.258,7.79-.56,11.623-.909,1.085-2.111,3.731-3.231,7.454-3.231a17.955,17.955,0,0,1,7.394,1.526v.037q5.577-.747,10.978-1.652v-5.626C128.116,271.28,122.551,264.723,109.9,264.723Z" transform="translate(-36.041 -264.313)" fill="#c2da67"/>
  <path id="Path_217" data-name="Path 217" d="M133.788,278.392V301.18h11.589V274.734c0-.617-.025-1.214-.067-1.8q-5.561,1.814-11.646,3.47A14.986,14.986,0,0,1,133.788,278.392Z" transform="translate(-10.629 -259.458)" fill="#91b43a"/>
  <path id="Path_218" data-name="Path 218" d="M117.5,298.6h11.586v-21.31q-5.647,1.236-11.586,2.32Z" transform="translate(-20.181 -256.883)" fill="#91b43a"/>
  <path id="Path_219" data-name="Path 219" d="M141.056,264.532c-5.871,0-9.3,3.125-11.968,6.555v-5.793H117.5v21.863q5.933-1.081,11.586-2.32v-1.478c0-5.491,2.818-8.31,7.239-8.31,3.857,0,6.316,2.146,6.889,6.324q6.076-1.652,11.646-3.47C154.241,269.593,149.246,264.532,141.056,264.532Z" transform="translate(-20.181 -264.425)" fill="#c2da67"/>
  <g id="Group_53" data-name="Group 53" transform="translate(16.739 29.054)">
    <path id="Path_220" data-name="Path 220" d="M87.224,286.325a9.8,9.8,0,0,1-7.8-3.6c-4.371.111-8.59.181-12.572.224a20.826,20.826,0,0,0,19.837,13.358c7.627,0,12.119-2.733,15.912-6.638l-6.913-6.876C93.188,284.979,90.69,286.325,87.224,286.325Z" transform="translate(-66.855 -282.726)" fill="#91b43a"/>
  </g>
</svg>
